<svg xmlns="http://www.w3.org/2000/svg" class="graphdiagram" viewBox="-2289.142358117868 -681.7385901325737 4557.790300081715 2371.330834753903"><g class="layer relationships"><g class="related-pair"><g class="relationship" transform="translate(-1713.637451171875,317.54315185546875) rotate(43.23671540892118)"><path class="relationship" d="M 96.22620273454744 4 L 1199.0079442936221 4 L 1199.0079442936221 16 L 1231.0079442936221 0 L 1199.0079442936221 -16 L 1199.0079442936221 -4 L 96.22620273454744 -4 Z" fill="rgb(0, 0, 0)" stroke="rgb(51, 51, 51)" stroke-width="0px"/><text class="type" text-anchor="middle" baseline-shift="30%" alignment-baseline="alphabetic" x="647.6170735140847" y="0" font-size="50px" font-family="&quot;Gill Sans&quot;, &quot;Gill Sans MT&quot;, Calibri, sans-serif">SAVED</text></g></g><g class="related-pair"><g class="relationship" transform="translate(-729.3491363525391,1243.0390625) rotate(-45.99251262335379)"><path class="relationship" d="M 120.0531821213296 4 L 915.7918721440121 4 L 915.7918721440121 16 L 947.7918721440121 0 L 915.7918721440121 -16 L 915.7918721440121 -4 L 120.0531821213296 -4 Z" fill="rgb(0, 0, 0)" stroke="rgb(51, 51, 51)" stroke-width="0px"/><text class="type" text-anchor="middle" baseline-shift="30%" alignment-baseline="alphabetic" x="517.9225271326709" y="0" font-size="50px" font-family="&quot;Gill Sans&quot;, &quot;Gill Sans MT&quot;, Calibri, sans-serif">OF</text></g></g><g class="related-pair"><g class="relationship" transform="translate(1409.7587890625,554.8055877685547) rotate(-176.0212833935243)"><path class="relationship" d="M 120.0531821213296 4 L 1210.1556957694806 4 L 1210.1556957694806 16 L 1242.1556957694806 0 L 1210.1556957694806 -16 L 1210.1556957694806 -4 L 120.0531821213296 -4 Z" fill="rgb(0, 0, 0)" stroke="rgb(51, 51, 51)" stroke-width="0px"/><text class="type" text-anchor="middle" baseline-shift="30%" alignment-baseline="alphabetic" transform="rotate(180)" x="-665.104438945405" y="0" font-size="50px" font-family="&quot;Gill Sans&quot;, &quot;Gill Sans MT&quot;, Calibri, sans-serif">OF</text></g></g><g class="related-pair"><g class="relationship" transform="translate(28.259565114974976,458.7174263000488) rotate(-41.03859498981918)"><path class="relationship" d="M 142.68113235938293 4 L 1277.4206823018894 4 L 1277.4206823018894 16 L 1309.4206823018894 0 L 1277.4206823018894 -16 L 1277.4206823018894 -4 L 142.68113235938293 -4 Z" fill="rgb(0, 0, 0)" stroke="rgb(51, 51, 51)" stroke-width="0px"/><text class="type" text-anchor="middle" baseline-shift="30%" alignment-baseline="alphabetic" x="710.0509073306362" y="0" font-size="50px" font-family="&quot;Gill Sans&quot;, &quot;Gill Sans MT&quot;, Calibri, sans-serif">IN_CITY</text></g></g><g class="related-pair"><g class="relationship" transform="translate(28.259565114974976,458.7174263000488) rotate(-75.24367686383638)"><path class="relationship" d="M 142.68113235938293 4 L 637.4379773002307 4 L 637.4379773002307 16 L 669.4379773002307 0 L 637.4379773002307 -16 L 637.4379773002307 -4 L 142.68113235938293 -4 Z" fill="rgb(0, 0, 0)" stroke="rgb(51, 51, 51)" stroke-width="0px"/><text class="type" text-anchor="middle" baseline-shift="30%" alignment-baseline="alphabetic" x="390.05955482980687" y="0" font-size="50px" font-family="&quot;Gill Sans&quot;, &quot;Gill Sans MT&quot;, Calibri, sans-serif">:IN_NEIGHBORHOOD</text></g></g><g class="related-pair"><g class="relationship" transform="translate(28.259565114974976,458.7174263000488) rotate(-133.17851352366142)"><path class="relationship" d="M 142.68113235938293 4 L 895.7897556877574 4 L 895.7897556877574 16 L 927.7897556877574 0 L 895.7897556877574 -16 L 895.7897556877574 -4 L 142.68113235938293 -4 Z" fill="rgb(0, 0, 0)" stroke="rgb(51, 51, 51)" stroke-width="0px"/><text class="type" text-anchor="middle" baseline-shift="30%" alignment-baseline="alphabetic" transform="rotate(180)" x="-519.2354440235702" y="0" font-size="50px" font-family="&quot;Gill Sans&quot;, &quot;Gill Sans MT&quot;, Calibri, sans-serif">:IN_SUBDIVISION</text></g></g><g class="related-pair"><g class="relationship" transform="translate(28.259565114974976,458.7174263000488) rotate(41.29242279628805)"><path class="relationship" d="M 142.68113235938293 4 L 684.9506029571652 4 L 684.9506029571652 16 L 716.9506029571652 0 L 684.9506029571652 -16 L 684.9506029571652 -4 L 142.68113235938293 -4 Z" fill="rgb(0, 0, 0)" stroke="rgb(51, 51, 51)" stroke-width="0px"/><text class="type" text-anchor="middle" baseline-shift="30%" alignment-baseline="alphabetic" x="413.8158676582741" y="0" font-size="50px" font-family="&quot;Gill Sans&quot;, &quot;Gill Sans MT&quot;, Calibri, sans-serif">HAS_APPRAISAL</text></g></g><g class="related-pair"><g class="relationship" transform="translate(28.259565114974976,458.7174263000488) rotate(90)"><path class="relationship" d="M 142.68113235938293 4 L 468.74272653956416 4 L 468.74272653956416 16 L 500.74272653956416 0 L 468.74272653956416 -16 L 468.74272653956416 -4 L 142.68113235938293 -4 Z" fill="rgb(0, 0, 0)" stroke="rgb(51, 51, 51)" stroke-width="0px"/><text class="type" text-anchor="middle" baseline-shift="30%" alignment-baseline="alphabetic" x="305.7119294494736" y="0" font-size="50px" font-family="&quot;Gill Sans&quot;, &quot;Gill Sans MT&quot;, Calibri, sans-serif">HAS_APPRAISAL</text></g></g></g><g class="layer nodes"><circle class="node node-id-0" r="81.22620273454744" fill="rgb(255, 255, 255)" stroke="rgb(0, 0, 0)" stroke-width="8px" cx="-1713.637451171875" cy="317.54315185546875"/><circle class="node node-id-1" r="105.0531821213296" fill="rgb(255, 255, 255)" stroke="rgb(0, 0, 0)" stroke-width="8px" cx="-729.3491363525391" cy="1243.0390625"/><circle class="node node-id-2" r="74.00166568703742" fill="rgb(255, 255, 255)" stroke="rgb(0, 0, 0)" stroke-width="8px" cx="1083.0440673828125" cy="-459.44090270996094"/><circle class="node node-id-3" r="127.68113235938293" fill="rgb(255, 255, 255)" stroke="rgb(0, 0, 0)" stroke-width="8px" cx="28.259565114974976" cy="458.7174263000488"/><circle class="node node-id-4" r="105.0531821213296" fill="rgb(255, 255, 255)" stroke="rgb(0, 0, 0)" stroke-width="8px" cx="1409.7587890625" cy="554.8055877685547"/><circle class="node node-id-5" r="196.7914465778862" fill="rgb(255, 255, 255)" stroke="rgb(0, 0, 0)" stroke-width="8px" cx="252.71633911132812" cy="-393.4471435546875"/><circle class="node node-id-6" r="164.38229455984583" fill="rgb(255, 255, 255)" stroke="rgb(0, 0, 0)" stroke-width="8px" cx="-729.3491363525391" cy="-348.6604309082031"/><circle class="node node-id-7" r="138.298880363512" fill="rgb(255, 255, 255)" stroke="rgb(0, 0, 0)" stroke-width="8px" cx="682.1227416992188" cy="1032.9970703125"/><circle class="node node-id-8" r="138.298880363512" fill="rgb(255, 255, 255)" stroke="rgb(0, 0, 0)" stroke-width="8px" cx="28.259565114974976" cy="1112.759033203125"/><g class="caption"><text class="caption node" text-anchor="middle" alignment-baseline="central" x="-1713.637451171875" y="317.54315185546875" fill="rgb(51, 51, 51)" font-size="50px" font-family="&quot;Gill Sans&quot;, &quot;Gill Sans MT&quot;, Calibri, sans-serif">User</text></g><g class="caption"><text class="caption node" text-anchor="middle" alignment-baseline="central" x="-729.3491363525391" y="1243.0390625" fill="rgb(51, 51, 51)" font-size="50px" font-family="&quot;Gill Sans&quot;, &quot;Gill Sans MT&quot;, Calibri, sans-serif">Listing</text></g><g class="caption"><text class="caption node" text-anchor="middle" alignment-baseline="central" x="1083.0440673828125" y="-459.44090270996094" fill="rgb(51, 51, 51)" font-size="50px" font-family="&quot;Gill Sans&quot;, &quot;Gill Sans MT&quot;, Calibri, sans-serif">City</text></g><g class="caption"><text class="caption node" text-anchor="middle" alignment-baseline="central" x="28.259565114974976" y="458.7174263000488" fill="rgb(51, 51, 51)" font-size="50px" font-family="&quot;Gill Sans&quot;, &quot;Gill Sans MT&quot;, Calibri, sans-serif">Property</text></g><g class="caption"><text class="caption node" text-anchor="middle" alignment-baseline="central" x="1409.7587890625" y="554.8055877685547" fill="rgb(51, 51, 51)" font-size="50px" font-family="&quot;Gill Sans&quot;, &quot;Gill Sans MT&quot;, Calibri, sans-serif">Listing</text></g><g class="caption"><text class="caption node" text-anchor="middle" alignment-baseline="central" x="252.71633911132812" y="-393.4471435546875" fill="rgb(51, 51, 51)" font-size="50px" font-family="&quot;Gill Sans&quot;, &quot;Gill Sans MT&quot;, Calibri, sans-serif">Neighborhood</text></g><g class="caption"><text class="caption node" text-anchor="middle" alignment-baseline="central" x="-729.3491363525391" y="-348.6604309082031" fill="rgb(51, 51, 51)" font-size="50px" font-family="&quot;Gill Sans&quot;, &quot;Gill Sans MT&quot;, Calibri, sans-serif">Subdivision</text></g><g class="caption"><text class="caption node" text-anchor="middle" alignment-baseline="central" x="682.1227416992188" y="1032.9970703125" fill="rgb(51, 51, 51)" font-size="50px" font-family="&quot;Gill Sans&quot;, &quot;Gill Sans MT&quot;, Calibri, sans-serif">Appraisal</text></g><g class="caption"><text class="caption node" text-anchor="middle" alignment-baseline="central" x="28.259565114974976" y="1112.759033203125" fill="rgb(51, 51, 51)" font-size="50px" font-family="&quot;Gill Sans&quot;, &quot;Gill Sans MT&quot;, Calibri, sans-serif">Appraisal</text></g></g><g class="layer properties"><g class="speech-bubble node-speech-bubble" transform="translate(-1771.0730499355068,260.10755309183696) "><path class="speech-bubble-outline" transform="scale(-1,-1) " d="M 0 0 L 30 20 L 353.7166748046875 20 A 10 10 0 0 1 363.7166748046875 30 L 363.7166748046875 130 A 10 10 0 0 1 353.7166748046875 140 L 30 140 A 10 10 0 0 1 20 130 L 20 30 Z" fill="rgb(255, 255, 255)" stroke="rgb(0, 0, 0)" stroke-width="3px"/><text class="speech-bubble-content property-key" x="-179.18333435058594" y="-105" alignment-baseline="central" text-anchor="end" font-size="50px" font-family="&quot;Gill Sans&quot;, &quot;Gill Sans MT&quot;, Calibri, sans-serif" xml:space="preserve">id: </text><text class="speech-bubble-content property-key" x="-179.18333435058594" y="-55" alignment-baseline="central" text-anchor="end" font-size="50px" font-family="&quot;Gill Sans&quot;, &quot;Gill Sans MT&quot;, Calibri, sans-serif" xml:space="preserve">name: </text><text class="speech-bubble-content property-value" x="-179.18333435058594" y="-105" alignment-baseline="central" font-size="50px" font-family="&quot;Gill Sans&quot;, &quot;Gill Sans MT&quot;, Calibri, sans-serif">String</text><text class="speech-bubble-content property-value" x="-179.18333435058594" y="-55" alignment-baseline="central" font-size="50px" font-family="&quot;Gill Sans&quot;, &quot;Gill Sans MT&quot;, Calibri, sans-serif">String</text></g><g class="speech-bubble node-speech-bubble" transform="translate(-729.3491363525391,1348.0922446213297) "><path class="speech-bubble-outline" transform="scale(1,1) " d="M 0 0 L -10 20 L -322.90000915527344 20 A 10 10 0 0 0 -332.90000915527344 30 L -332.90000915527344 330 A 10 10 0 0 0 -322.90000915527344 340 L 322.90000915527344 340 A 10 10 0 0 0 332.90000915527344 330 L 332.90000915527344 30 A 10 10 0 0 0 322.90000915527344 20 L 10 20 Z" fill="rgb(255, 255, 255)" stroke="rgb(0, 0, 0)" stroke-width="3px"/><text class="speech-bubble-content property-key" x="81.05000305175781" y="55" alignment-baseline="central" text-anchor="end" font-size="50px" font-family="&quot;Gill Sans&quot;, &quot;Gill Sans MT&quot;, Calibri, sans-serif" xml:space="preserve">createdAt: </text><text class="speech-bubble-content property-key" x="81.05000305175781" y="105" alignment-baseline="central" text-anchor="end" font-size="50px" font-family="&quot;Gill Sans&quot;, &quot;Gill Sans MT&quot;, Calibri, sans-serif" xml:space="preserve">listingId: </text><text class="speech-bubble-content property-key" x="81.05000305175781" y="155" alignment-baseline="central" text-anchor="end" font-size="50px" font-family="&quot;Gill Sans&quot;, &quot;Gill Sans MT&quot;, Calibri, sans-serif" xml:space="preserve">askingPrice: </text><text class="speech-bubble-content property-key" x="81.05000305175781" y="205" alignment-baseline="central" text-anchor="end" font-size="50px" font-family="&quot;Gill Sans&quot;, &quot;Gill Sans MT&quot;, Calibri, sans-serif" xml:space="preserve">bedRooms: </text><text class="speech-bubble-content property-key" x="81.05000305175781" y="255" alignment-baseline="central" text-anchor="end" font-size="50px" font-family="&quot;Gill Sans&quot;, &quot;Gill Sans MT&quot;, Calibri, sans-serif" xml:space="preserve">bathRooms: </text><text class="speech-bubble-content property-key" x="81.05000305175781" y="305" alignment-baseline="central" text-anchor="end" font-size="50px" font-family="&quot;Gill Sans&quot;, &quot;Gill Sans MT&quot;, Calibri, sans-serif" xml:space="preserve">squareFootage: </text><text class="speech-bubble-content property-value" x="81.05000305175781" y="55" alignment-baseline="central" font-size="50px" font-family="&quot;Gill Sans&quot;, &quot;Gill Sans MT&quot;, Calibri, sans-serif">DateTime</text><text class="speech-bubble-content property-value" x="81.05000305175781" y="105" alignment-baseline="central" font-size="50px" font-family="&quot;Gill Sans&quot;, &quot;Gill Sans MT&quot;, Calibri, sans-serif">String</text><text class="speech-bubble-content property-value" x="81.05000305175781" y="155" alignment-baseline="central" font-size="50px" font-family="&quot;Gill Sans&quot;, &quot;Gill Sans MT&quot;, Calibri, sans-serif">Int</text><text class="speech-bubble-content property-value" x="81.05000305175781" y="205" alignment-baseline="central" font-size="50px" font-family="&quot;Gill Sans&quot;, &quot;Gill Sans MT&quot;, Calibri, sans-serif">Int</text><text class="speech-bubble-content property-value" x="81.05000305175781" y="255" alignment-baseline="central" font-size="50px" font-family="&quot;Gill Sans&quot;, &quot;Gill Sans MT&quot;, Calibri, sans-serif">Int</text><text class="speech-bubble-content property-value" x="81.05000305175781" y="305" alignment-baseline="central" font-size="50px" font-family="&quot;Gill Sans&quot;, &quot;Gill Sans MT&quot;, Calibri, sans-serif">Int</text></g><g class="speech-bubble node-speech-bubble" transform="translate(1135.3711470092164,-511.767982336365) "><path class="speech-bubble-outline" transform="scale(1,-1) " d="M 0 0 L 30 20 L 353.7166748046875 20 A 10 10 0 0 1 363.7166748046875 30 L 363.7166748046875 80 A 10 10 0 0 1 353.7166748046875 90 L 30 90 A 10 10 0 0 1 20 80 L 20 30 Z" fill="rgb(255, 255, 255)" stroke="rgb(0, 0, 0)" stroke-width="3px"/><text class="speech-bubble-content property-key" x="204.53334045410156" y="-55" alignment-baseline="central" text-anchor="end" font-size="50px" font-family="&quot;Gill Sans&quot;, &quot;Gill Sans MT&quot;, Calibri, sans-serif" xml:space="preserve">name: </text><text class="speech-bubble-content property-value" x="204.53334045410156" y="-55" alignment-baseline="central" font-size="50px" font-family="&quot;Gill Sans&quot;, &quot;Gill Sans MT&quot;, Calibri, sans-serif">String</text></g><g class="speech-bubble node-speech-bubble" transform="translate(-99.42156724440795,458.7174263000488) "><path class="speech-bubble-outline" transform="scale(-1,1) " d="M 0 0 L 20 -10 L 20 -100 A 10 10 0 0 1 30 -110 L 424.1999969482422 -110 A 10 10 0 0 1 434.1999969482422 -100 L 434.1999969482422 100 A 10 10 0 0 1 424.1999969482422 110 L 30 110 A 10 10 0 0 1 20 100 L 20 10 Z" fill="rgb(255, 255, 255)" stroke="rgb(0, 0, 0)" stroke-width="3px"/><text class="speech-bubble-content property-key" x="-193.11666870117188" y="-75" alignment-baseline="central" text-anchor="end" font-size="50px" font-family="&quot;Gill Sans&quot;, &quot;Gill Sans MT&quot;, Calibri, sans-serif" xml:space="preserve">id: </text><text class="speech-bubble-content property-key" x="-193.11666870117188" y="-25" alignment-baseline="central" text-anchor="end" font-size="50px" font-family="&quot;Gill Sans&quot;, &quot;Gill Sans MT&quot;, Calibri, sans-serif" xml:space="preserve">address: </text><text class="speech-bubble-content property-key" x="-193.11666870117188" y="25" alignment-baseline="central" text-anchor="end" font-size="50px" font-family="&quot;Gill Sans&quot;, &quot;Gill Sans MT&quot;, Calibri, sans-serif" xml:space="preserve">location: </text><text class="speech-bubble-content property-key" x="-193.11666870117188" y="75" alignment-baseline="central" text-anchor="end" font-size="50px" font-family="&quot;Gill Sans&quot;, &quot;Gill Sans MT&quot;, Calibri, sans-serif" xml:space="preserve">bounds: </text><text class="speech-bubble-content property-value" x="-193.11666870117188" y="-75" alignment-baseline="central" font-size="50px" font-family="&quot;Gill Sans&quot;, &quot;Gill Sans MT&quot;, Calibri, sans-serif">String</text><text class="speech-bubble-content property-value" x="-193.11666870117188" y="-25" alignment-baseline="central" font-size="50px" font-family="&quot;Gill Sans&quot;, &quot;Gill Sans MT&quot;, Calibri, sans-serif">String</text><text class="speech-bubble-content property-value" x="-193.11666870117188" y="25" alignment-baseline="central" font-size="50px" font-family="&quot;Gill Sans&quot;, &quot;Gill Sans MT&quot;, Calibri, sans-serif">Point</text><text class="speech-bubble-content property-value" x="-193.11666870117188" y="75" alignment-baseline="central" font-size="50px" font-family="&quot;Gill Sans&quot;, &quot;Gill Sans MT&quot;, Calibri, sans-serif">[Point]</text></g><g class="speech-bubble node-speech-bubble" transform="translate(1514.8119711838297,554.8055877685547) "><path class="speech-bubble-outline" transform="scale(1,1) " d="M 0 0 L 20 -10 L 20 -75 A 10 10 0 0 1 30 -85 L 589.4833374023438 -85 A 10 10 0 0 1 599.4833374023438 -75 L 599.4833374023438 75 A 10 10 0 0 1 589.4833374023438 85 L 30 85 A 10 10 0 0 1 20 75 L 20 10 Z" fill="rgb(255, 255, 255)" stroke="rgb(0, 0, 0)" stroke-width="3px"/><text class="speech-bubble-content property-key" x="347.6333312988281" y="-50" alignment-baseline="central" text-anchor="end" font-size="50px" font-family="&quot;Gill Sans&quot;, &quot;Gill Sans MT&quot;, Calibri, sans-serif" xml:space="preserve">createdAt: </text><text class="speech-bubble-content property-key" x="347.6333312988281" y="0" alignment-baseline="central" text-anchor="end" font-size="50px" font-family="&quot;Gill Sans&quot;, &quot;Gill Sans MT&quot;, Calibri, sans-serif" xml:space="preserve">active: </text><text class="speech-bubble-content property-key" x="347.6333312988281" y="50" alignment-baseline="central" text-anchor="end" font-size="50px" font-family="&quot;Gill Sans&quot;, &quot;Gill Sans MT&quot;, Calibri, sans-serif" xml:space="preserve">askingPrice: </text><text class="speech-bubble-content property-value" x="347.6333312988281" y="-50" alignment-baseline="central" font-size="50px" font-family="&quot;Gill Sans&quot;, &quot;Gill Sans MT&quot;, Calibri, sans-serif">DateTime</text><text class="speech-bubble-content property-value" x="347.6333312988281" y="0" alignment-baseline="central" font-size="50px" font-family="&quot;Gill Sans&quot;, &quot;Gill Sans MT&quot;, Calibri, sans-serif">Bool</text><text class="speech-bubble-content property-value" x="347.6333312988281" y="50" alignment-baseline="central" font-size="50px" font-family="&quot;Gill Sans&quot;, &quot;Gill Sans MT&quot;, Calibri, sans-serif">Int</text></g><g class="speech-bubble node-speech-bubble" transform="translate(252.71633911132812,-590.2385901325737) "><path class="speech-bubble-outline" transform="scale(1,-1) " d="M 0 0 L -10 20 L -161.85833740234375 20 A 10 10 0 0 0 -171.85833740234375 30 L -171.85833740234375 80 A 10 10 0 0 0 -161.85833740234375 90 L 161.85833740234375 90 A 10 10 0 0 0 171.85833740234375 80 L 171.85833740234375 30 A 10 10 0 0 0 161.85833740234375 20 L 10 20 Z" fill="rgb(255, 255, 255)" stroke="rgb(0, 0, 0)" stroke-width="3px"/><text class="speech-bubble-content property-key" x="12.675003051757812" y="-55" alignment-baseline="central" text-anchor="end" font-size="50px" font-family="&quot;Gill Sans&quot;, &quot;Gill Sans MT&quot;, Calibri, sans-serif" xml:space="preserve">name: </text><text class="speech-bubble-content property-value" x="12.675003051757812" y="-55" alignment-baseline="central" font-size="50px" font-family="&quot;Gill Sans&quot;, &quot;Gill Sans MT&quot;, Calibri, sans-serif">String</text></g><g class="speech-bubble node-speech-bubble" transform="translate(-845.5849715428105,-464.89626609847465) "><path class="speech-bubble-outline" transform="scale(-1,-1) " d="M 0 0 L 30 20 L 353.7166748046875 20 A 10 10 0 0 1 363.7166748046875 30 L 363.7166748046875 80 A 10 10 0 0 1 353.7166748046875 90 L 30 90 A 10 10 0 0 1 20 80 L 20 30 Z" fill="rgb(255, 255, 255)" stroke="rgb(0, 0, 0)" stroke-width="3px"/><text class="speech-bubble-content property-key" x="-179.18333435058594" y="-55" alignment-baseline="central" text-anchor="end" font-size="50px" font-family="&quot;Gill Sans&quot;, &quot;Gill Sans MT&quot;, Calibri, sans-serif" xml:space="preserve">name: </text><text class="speech-bubble-content property-value" x="-179.18333435058594" y="-55" alignment-baseline="central" font-size="50px" font-family="&quot;Gill Sans&quot;, &quot;Gill Sans MT&quot;, Calibri, sans-serif">String</text></g><g class="speech-bubble node-speech-bubble" transform="translate(779.9148178347651,1130.7891464480465) "><path class="speech-bubble-outline" transform="scale(1,1) " d="M 0 0 L 30 20 L 512.4499969482422 20 A 10 10 0 0 1 522.4499969482422 30 L 522.4499969482422 330 A 10 10 0 0 1 512.4499969482422 340 L 30 340 A 10 10 0 0 1 20 330 L 20 30 Z" fill="rgb(255, 255, 255)" stroke="rgb(0, 0, 0)" stroke-width="3px"/><text class="speech-bubble-content property-key" x="347.3666687011719" y="55" alignment-baseline="central" text-anchor="end" font-size="50px" font-family="&quot;Gill Sans&quot;, &quot;Gill Sans MT&quot;, Calibri, sans-serif" xml:space="preserve">property_id: </text><text class="speech-bubble-content property-key" x="347.3666687011719" y="105" alignment-baseline="central" text-anchor="end" font-size="50px" font-family="&quot;Gill Sans&quot;, &quot;Gill Sans MT&quot;, Calibri, sans-serif" xml:space="preserve">year: </text><text class="speech-bubble-content property-key" x="347.3666687011719" y="155" alignment-baseline="central" text-anchor="end" font-size="50px" font-family="&quot;Gill Sans&quot;, &quot;Gill Sans MT&quot;, Calibri, sans-serif" xml:space="preserve">land: </text><text class="speech-bubble-content property-key" x="347.3666687011719" y="205" alignment-baseline="central" text-anchor="end" font-size="50px" font-family="&quot;Gill Sans&quot;, &quot;Gill Sans MT&quot;, Calibri, sans-serif" xml:space="preserve">building: </text><text class="speech-bubble-content property-key" x="347.3666687011719" y="255" alignment-baseline="central" text-anchor="end" font-size="50px" font-family="&quot;Gill Sans&quot;, &quot;Gill Sans MT&quot;, Calibri, sans-serif" xml:space="preserve">total: </text><text class="speech-bubble-content property-key" x="347.3666687011719" y="305" alignment-baseline="central" text-anchor="end" font-size="50px" font-family="&quot;Gill Sans&quot;, &quot;Gill Sans MT&quot;, Calibri, sans-serif" xml:space="preserve">method: </text><text class="speech-bubble-content property-value" x="347.3666687011719" y="55" alignment-baseline="central" font-size="50px" font-family="&quot;Gill Sans&quot;, &quot;Gill Sans MT&quot;, Calibri, sans-serif">String,</text><text class="speech-bubble-content property-value" x="347.3666687011719" y="105" alignment-baseline="central" font-size="50px" font-family="&quot;Gill Sans&quot;, &quot;Gill Sans MT&quot;, Calibri, sans-serif">Int,</text><text class="speech-bubble-content property-value" x="347.3666687011719" y="155" alignment-baseline="central" font-size="50px" font-family="&quot;Gill Sans&quot;, &quot;Gill Sans MT&quot;, Calibri, sans-serif">Int,</text><text class="speech-bubble-content property-value" x="347.3666687011719" y="205" alignment-baseline="central" font-size="50px" font-family="&quot;Gill Sans&quot;, &quot;Gill Sans MT&quot;, Calibri, sans-serif">Int,</text><text class="speech-bubble-content property-value" x="347.3666687011719" y="255" alignment-baseline="central" font-size="50px" font-family="&quot;Gill Sans&quot;, &quot;Gill Sans MT&quot;, Calibri, sans-serif">Int,</text><text class="speech-bubble-content property-value" x="347.3666687011719" y="305" alignment-baseline="central" font-size="50px" font-family="&quot;Gill Sans&quot;, &quot;Gill Sans MT&quot;, Calibri, sans-serif">String</text></g><g class="speech-bubble node-speech-bubble" transform="translate(28.259565114974976,1251.0579135666371) "><path class="speech-bubble-outline" transform="scale(1,1) " d="M 0 0 L -10 20 L -241.2249984741211 20 A 10 10 0 0 0 -251.2249984741211 30 L -251.2249984741211 330 A 10 10 0 0 0 -241.2249984741211 340 L 241.2249984741211 340 A 10 10 0 0 0 251.2249984741211 330 L 251.2249984741211 30 A 10 10 0 0 0 241.2249984741211 20 L 10 20 Z" fill="rgb(255, 255, 255)" stroke="rgb(0, 0, 0)" stroke-width="3px"/><text class="speech-bubble-content property-key" x="76.14167022705078" y="55" alignment-baseline="central" text-anchor="end" font-size="50px" font-family="&quot;Gill Sans&quot;, &quot;Gill Sans MT&quot;, Calibri, sans-serif" xml:space="preserve">property_id: </text><text class="speech-bubble-content property-key" x="76.14167022705078" y="105" alignment-baseline="central" text-anchor="end" font-size="50px" font-family="&quot;Gill Sans&quot;, &quot;Gill Sans MT&quot;, Calibri, sans-serif" xml:space="preserve">year: </text><text class="speech-bubble-content property-key" x="76.14167022705078" y="155" alignment-baseline="central" text-anchor="end" font-size="50px" font-family="&quot;Gill Sans&quot;, &quot;Gill Sans MT&quot;, Calibri, sans-serif" xml:space="preserve">land: </text><text class="speech-bubble-content property-key" x="76.14167022705078" y="205" alignment-baseline="central" text-anchor="end" font-size="50px" font-family="&quot;Gill Sans&quot;, &quot;Gill Sans MT&quot;, Calibri, sans-serif" xml:space="preserve">building: </text><text class="speech-bubble-content property-key" x="76.14167022705078" y="255" alignment-baseline="central" text-anchor="end" font-size="50px" font-family="&quot;Gill Sans&quot;, &quot;Gill Sans MT&quot;, Calibri, sans-serif" xml:space="preserve">total: </text><text class="speech-bubble-content property-key" x="76.14167022705078" y="305" alignment-baseline="central" text-anchor="end" font-size="50px" font-family="&quot;Gill Sans&quot;, &quot;Gill Sans MT&quot;, Calibri, sans-serif" xml:space="preserve">method: </text><text class="speech-bubble-content property-value" x="76.14167022705078" y="55" alignment-baseline="central" font-size="50px" font-family="&quot;Gill Sans&quot;, &quot;Gill Sans MT&quot;, Calibri, sans-serif">String,</text><text class="speech-bubble-content property-value" x="76.14167022705078" y="105" alignment-baseline="central" font-size="50px" font-family="&quot;Gill Sans&quot;, &quot;Gill Sans MT&quot;, Calibri, sans-serif">Int,</text><text class="speech-bubble-content property-value" x="76.14167022705078" y="155" alignment-baseline="central" font-size="50px" font-family="&quot;Gill Sans&quot;, &quot;Gill Sans MT&quot;, Calibri, sans-serif">Int,</text><text class="speech-bubble-content property-value" x="76.14167022705078" y="205" alignment-baseline="central" font-size="50px" font-family="&quot;Gill Sans&quot;, &quot;Gill Sans MT&quot;, Calibri, sans-serif">Int,</text><text class="speech-bubble-content property-value" x="76.14167022705078" y="255" alignment-baseline="central" font-size="50px" font-family="&quot;Gill Sans&quot;, &quot;Gill Sans MT&quot;, Calibri, sans-serif">Int,</text><text class="speech-bubble-content property-value" x="76.14167022705078" y="305" alignment-baseline="central" font-size="50px" font-family="&quot;Gill Sans&quot;, &quot;Gill Sans MT&quot;, Calibri, sans-serif">String</text></g><g class="speech-bubble relationship-speech-bubble" transform="translate(-1241.8291032928532,761.1699733829948) "><path class="speech-bubble-outline" transform="scale(-1,1) " d="M 0 0 L 30 20 L 547.9666748046875 20 A 10 10 0 0 1 557.9666748046875 30 L 557.9666748046875 80 A 10 10 0 0 1 547.9666748046875 90 L 30 90 A 10 10 0 0 1 20 80 L 20 30 Z" fill="rgb(255, 255, 255)" stroke="rgb(0, 0, 0)" stroke-width="3px"/><text class="speech-bubble-content property-key" x="-271.8500061035156" y="55" alignment-baseline="central" text-anchor="end" font-size="50px" font-family="&quot;Gill Sans&quot;, &quot;Gill Sans MT&quot;, Calibri, sans-serif" xml:space="preserve">createdAt: </text><text class="speech-bubble-content property-value" x="-271.8500061035156" y="55" alignment-baseline="central" font-size="50px" font-family="&quot;Gill Sans&quot;, &quot;Gill Sans MT&quot;, Calibri, sans-serif">DateTime</text></g></g><g class="layer overlay"><circle class="node overlay" r="85.22620273454744" stroke="none" fill="rgba(255, 255, 255, 0)" cx="-1713.637451171875" cy="317.54315185546875"/><circle class="node ring" r="90.22620273454744" fill="none" stroke="rgba(255, 255, 255, 0)" stroke-width="10px" cx="-1713.637451171875" cy="317.54315185546875"/><circle class="node overlay" r="109.0531821213296" stroke="none" fill="rgba(255, 255, 255, 0)" cx="-729.3491363525391" cy="1243.0390625"/><circle class="node overlay" r="78.00166568703742" stroke="none" fill="rgba(255, 255, 255, 0)" cx="1083.0440673828125" cy="-459.44090270996094"/><circle class="node overlay" r="131.68113235938293" stroke="none" fill="rgba(255, 255, 255, 0)" cx="28.259565114974976" cy="458.7174263000488"/><circle class="node overlay" r="109.0531821213296" stroke="none" fill="rgba(255, 255, 255, 0)" cx="1409.7587890625" cy="554.8055877685547"/><circle class="node overlay" r="200.7914465778862" stroke="none" fill="rgba(255, 255, 255, 0)" cx="252.71633911132812" cy="-393.4471435546875"/><circle class="node overlay" r="168.38229455984583" stroke="none" fill="rgba(255, 255, 255, 0)" cx="-729.3491363525391" cy="-348.6604309082031"/><circle class="node overlay" r="142.298880363512" stroke="none" fill="rgba(255, 255, 255, 0)" cx="682.1227416992188" cy="1032.9970703125"/><circle class="node overlay" r="142.298880363512" stroke="none" fill="rgba(255, 255, 255, 0)" cx="28.259565114974976" cy="1112.759033203125"/><circle class="node ring" r="114.0531821213296" fill="none" stroke="rgba(255, 255, 255, 0)" stroke-width="10px" cx="-729.3491363525391" cy="1243.0390625"/><circle class="node ring" r="83.00166568703742" fill="none" stroke="rgba(255, 255, 255, 0)" stroke-width="10px" cx="1083.0440673828125" cy="-459.44090270996094"/><circle class="node ring" r="136.68113235938293" fill="none" stroke="rgba(255, 255, 255, 0)" stroke-width="10px" cx="28.259565114974976" cy="458.7174263000488"/><circle class="node ring" r="114.0531821213296" fill="none" stroke="rgba(255, 255, 255, 0)" stroke-width="10px" cx="1409.7587890625" cy="554.8055877685547"/><circle class="node ring" r="205.7914465778862" fill="none" stroke="rgba(255, 255, 255, 0)" stroke-width="10px" cx="252.71633911132812" cy="-393.4471435546875"/><circle class="node ring" r="173.38229455984583" fill="none" stroke="rgba(255, 255, 255, 0)" stroke-width="10px" cx="-729.3491363525391" cy="-348.6604309082031"/><circle class="node ring" r="147.298880363512" fill="none" stroke="rgba(255, 255, 255, 0)" stroke-width="10px" cx="682.1227416992188" cy="1032.9970703125"/><circle class="node ring" r="147.298880363512" fill="none" stroke="rgba(255, 255, 255, 0)" stroke-width="10px" cx="28.259565114974976" cy="1112.759033203125"/><path class="relationship overlay" fill="rgba(255, 255, 255, 0)" stroke="rgba(255, 255, 255, 0)" stroke-width="10px" transform="translate(-1713.637451171875,317.54315185546875) rotate(43.23671540892118)" d="M 96.22620273454744 4 L 1199.0079442936221 4 L 1199.0079442936221 16 L 1231.0079442936221 0 L 1199.0079442936221 -16 L 1199.0079442936221 -4 L 96.22620273454744 -4 Z"/><path class="relationship overlay" fill="rgba(255, 255, 255, 0)" stroke="rgba(255, 255, 255, 0)" stroke-width="10px" transform="translate(-729.3491363525391,1243.0390625) rotate(-45.99251262335379)" d="M 120.0531821213296 4 L 915.7918721440121 4 L 915.7918721440121 16 L 947.7918721440121 0 L 915.7918721440121 -16 L 915.7918721440121 -4 L 120.0531821213296 -4 Z"/><path class="relationship overlay" fill="rgba(255, 255, 255, 0)" stroke="rgba(255, 255, 255, 0)" stroke-width="10px" transform="translate(1409.7587890625,554.8055877685547) rotate(-176.0212833935243)" d="M 120.0531821213296 4 L 1210.1556957694806 4 L 1210.1556957694806 16 L 1242.1556957694806 0 L 1210.1556957694806 -16 L 1210.1556957694806 -4 L 120.0531821213296 -4 Z"/><path class="relationship overlay" fill="rgba(255, 255, 255, 0)" stroke="rgba(255, 255, 255, 0)" stroke-width="10px" transform="translate(28.259565114974976,458.7174263000488) rotate(-41.03859498981918)" d="M 142.68113235938293 4 L 1277.4206823018894 4 L 1277.4206823018894 16 L 1309.4206823018894 0 L 1277.4206823018894 -16 L 1277.4206823018894 -4 L 142.68113235938293 -4 Z"/><path class="relationship overlay" fill="rgba(255, 255, 255, 0)" stroke="rgba(255, 255, 255, 0)" stroke-width="10px" transform="translate(28.259565114974976,458.7174263000488) rotate(-75.24367686383638)" d="M 142.68113235938293 4 L 637.4379773002307 4 L 637.4379773002307 16 L 669.4379773002307 0 L 637.4379773002307 -16 L 637.4379773002307 -4 L 142.68113235938293 -4 Z"/><path class="relationship overlay" fill="rgba(255, 255, 255, 0)" stroke="rgba(255, 255, 255, 0)" stroke-width="10px" transform="translate(28.259565114974976,458.7174263000488) rotate(-133.17851352366142)" d="M 142.68113235938293 4 L 895.7897556877574 4 L 895.7897556877574 16 L 927.7897556877574 0 L 895.7897556877574 -16 L 895.7897556877574 -4 L 142.68113235938293 -4 Z"/><path class="relationship overlay" fill="rgba(255, 255, 255, 0)" stroke="rgba(255, 255, 255, 0)" stroke-width="10px" transform="translate(28.259565114974976,458.7174263000488) rotate(41.29242279628805)" d="M 142.68113235938293 4 L 684.9506029571652 4 L 684.9506029571652 16 L 716.9506029571652 0 L 684.9506029571652 -16 L 684.9506029571652 -4 L 142.68113235938293 -4 Z"/><path class="relationship overlay" fill="rgba(255, 255, 255, 0)" stroke="rgba(255, 255, 255, 0)" stroke-width="10px" transform="translate(28.259565114974976,458.7174263000488) rotate(90)" d="M 142.68113235938293 4 L 468.74272653956416 4 L 468.74272653956416 16 L 500.74272653956416 0 L 468.74272653956416 -16 L 468.74272653956416 -4 L 142.68113235938293 -4 Z"/></g></svg>